<svg xmlns="http://www.w3.org/2000/svg" viewBox="0 0 480 270" width="1920" height="1080" preserveAspectRatio="xMidYMid slice" shape-rendering="crispEdges">
<defs>
<linearGradient id="sky" x1="0" y1="0" x2="0" y2="1"><stop offset="0" stop-color="#05040a"/><stop offset="0.55" stop-color="#1a1440"/><stop offset="1" stop-color="#2b2160"/></linearGradient>
<linearGradient id="fog" x1="0" y1="0" x2="0" y2="1"><stop offset="0" stop-color="#6f5cc9" stop-opacity="0"/><stop offset="1" stop-color="#6f5cc9" stop-opacity="0.35"/></linearGradient>
</defs>
<defs><linearGradient id="g3" x1="0" y1="0" x2="1" y2="1"><stop offset="0" stop-color="#100c22"/><stop offset="1" stop-color="#3a2470"/></linearGradient></defs><rect width="480" height="270" fill="url(#g3)"/><rect x="120" y="138" width="1" height="1" fill="#d9d0ff" opacity="0.3"/><rect x="188" y="120" width="1" height="1" fill="#d9d0ff" opacity="0.8"/><rect x="296" y="16" width="1" height="1" fill="#d9d0ff" opacity="0.8"/><rect x="6" y="120" width="1" height="1" fill="#d9d0ff" opacity="0.5"/><rect x="282" y="58" width="1" height="1" fill="#d9d0ff" opacity="0.3"/><rect x="366" y="120" width="1" height="1" fill="#d9d0ff" opacity="0.8"/><rect x="428" y="120" width="1" height="1" fill="#d9d0ff" opacity="0.5"/><rect x="326" y="38" width="1" height="1" fill="#d9d0ff" opacity="0.3"/><rect x="324" y="38" width="1" height="1" fill="#d9d0ff" opacity="0.8"/><rect x="198" y="2" width="1" height="1" fill="#d9d0ff" opacity="0.8"/><rect x="396" y="16" width="1" height="1" fill="#d9d0ff" opacity="0.3"/><rect x="388" y="10" width="1" height="1" fill="#d9d0ff" opacity="0.5"/><rect x="398" y="6" width="1" height="1" fill="#d9d0ff" opacity="0.5"/><rect x="242" y="98" width="1" height="1" fill="#d9d0ff" opacity="0.8"/><rect x="402" y="108" width="1" height="1" fill="#d9d0ff" opacity="0.5"/><rect x="372" y="112" width="1" height="1" fill="#d9d0ff" opacity="0.3"/><rect x="448" y="92" width="1" height="1" fill="#d9d0ff" opacity="0.3"/><rect x="18" y="34" width="1" height="1" fill="#d9d0ff" opacity="0.5"/><rect x="110" y="66" width="1" height="1" fill="#d9d0ff" opacity="0.8"/><rect x="222" y="76" width="1" height="1" fill="#d9d0ff" opacity="0.5"/><rect x="258" y="98" width="1" height="1" fill="#d9d0ff" opacity="0.8"/><rect x="178" y="136" width="1" height="1" fill="#d9d0ff" opacity="0.8"/><rect x="208" y="58" width="1" height="1" fill="#d9d0ff" opacity="0.5"/><rect x="348" y="6" width="1" height="1" fill="#d9d0ff" opacity="0.5"/><rect x="310" y="40" width="1" height="1" fill="#d9d0ff" opacity="0.8"/><rect x="440" y="82" width="1" height="1" fill="#d9d0ff" opacity="0.8"/><rect x="462" y="26" width="1" height="1" fill="#d9d0ff" opacity="0.8"/><rect x="334" y="54" width="1" height="1" fill="#d9d0ff" opacity="0.8"/><rect x="424" y="68" width="1" height="1" fill="#d9d0ff" opacity="0.5"/><rect x="62" y="16" width="1" height="1" fill="#d9d0ff" opacity="0.5"/><rect x="436" y="122" width="1" height="1" fill="#d9d0ff" opacity="0.3"/><rect x="176" y="16" width="1" height="1" fill="#d9d0ff" opacity="0.5"/><rect x="458" y="38" width="1" height="1" fill="#d9d0ff" opacity="0.3"/><rect x="150" y="108" width="1" height="1" fill="#d9d0ff" opacity="0.5"/><rect x="446" y="30" width="1" height="1" fill="#d9d0ff" opacity="0.3"/><rect x="308" y="10" width="1" height="1" fill="#d9d0ff" opacity="0.5"/><rect x="366" y="84" width="1" height="1" fill="#d9d0ff" opacity="0.8"/><rect x="450" y="70" width="1" height="1" fill="#d9d0ff" opacity="0.8"/><rect x="120" y="8" width="1" height="1" fill="#d9d0ff" opacity="0.5"/><rect x="2" y="18" width="1" height="1" fill="#d9d0ff" opacity="0.3"/><line x1="60" y1="200" x2="130" y2="170" stroke="#57409f" stroke-width="2" stroke-dasharray="4 4"/><line x1="130" y1="170" x2="200" y2="195" stroke="#57409f" stroke-width="2" stroke-dasharray="4 4"/><line x1="200" y1="195" x2="270" y2="150" stroke="#57409f" stroke-width="2" stroke-dasharray="4 4"/><line x1="270" y1="150" x2="340" y2="180" stroke="#57409f" stroke-width="2" stroke-dasharray="4 4"/><line x1="340" y1="180" x2="420" y2="140" stroke="#57409f" stroke-width="2" stroke-dasharray="4 4"/><rect x="55" y="195" width="10" height="10" fill="#0a0816" stroke="#c3b4fb"/><rect x="125" y="165" width="10" height="10" fill="#0a0816" stroke="#c3b4fb"/><rect x="195" y="190" width="10" height="10" fill="#0a0816" stroke="#c3b4fb"/><rect x="265" y="145" width="10" height="10" fill="#0a0816" stroke="#c3b4fb"/><rect x="335" y="175" width="10" height="10" fill="#0a0816" stroke="#c3b4fb"/><rect x="415" y="135" width="10" height="10" fill="#0a0816" stroke="#c3b4fb"/><rect x="6" y="6" width="468" height="258" fill="none" stroke="#3a2a70" stroke-width="2"/><text x="18" y="24" font-family="monospace" font-size="7" letter-spacing="2" fill="#7a62cf">SCREENSHOT 03</text><text x="240" y="128" text-anchor="middle" font-family="monospace" font-size="14" letter-spacing="3" fill="#ddd3ff" opacity="0.9">PLACEHOLDER</text><text x="240" y="146" text-anchor="middle" font-family="monospace" font-size="7" letter-spacing="1" fill="#9c94b8">Replace site/public/media/screenshot-03.svg</text></svg>